<svg width="32" height="32" viewBox="0 0 32 32" xmlns="http://www.w3.org/2000/svg">
    <g fill="none" fill-rule="evenodd">
        <path fill="none" d="M0 32h32V0H0z"/>
        <path d="m18.259 12.543.34-1.962m10.01 2.605H9.677m12.566 5.997c-3.496 0-8.054.003-11.784.004m-4.82.002H3.5c-.646 0-.922-.168-1.17-.5a2.306 2.306 0 0 1-.06-.086 2.823 2.823 0 0 1-.425-1.533c.002-.217.003-.453.006-.663.01-.946.901-1.454 1.277-1.648 1.244-.64 2.92-1.065 4.676-1.265l.361-.037c.199-.022.392-.042.582-.067.054-.008.108-.015.16-.024.089-.013.172-.027.248-.041l.05-.011c.098-.02.192-.041.287-.068.163-.047.321-.11.479-.18a4.9 4.9 0 0 0 .146-.067c.138-.065.275-.134.416-.206l.195-.1a21.075 21.075 0 0 1 4.58-1.651c.06-.015.119-.027.179-.04a16.657 16.657 0 0 1 4.284-.425c1.546.049 3.18.32 4.853.805a25.364 25.364 0 0 1 1.123.361l.058.022a24.413 24.413 0 0 1 .582.216 31.048 31.048 0 0 1 .585.233c.447.183 1.267.559 1.752.783.25.116.444.325.541.584l.668 1.778c.074.196.087.41.038.614l-.575 2.402a1.051 1.051 0 0 1-1.023.806h-1.308" stroke="#212322" stroke-linecap="round" stroke-linejoin="round"/>
        <path d="M5.874 19.183a2.25 2.25 0 1 0 4.5-.001 2.25 2.25 0 0 0-4.5 0zM22.516 19.183a2.25 2.25 0 1 0 4.5-.001 2.25 2.25 0 0 0-4.5 0z" stroke="#212322" stroke-linecap="round" stroke-linejoin="round"/>
    </g>
</svg>
