<svg id="car08" xmlns="http://www.w3.org/2000/svg" width="32" height="32" viewBox="0 0 32 32">
  <path id="Fill_1" data-name="Fill 1" d="M0,32H32V0H0Z" fill="none" opacity="0"/>
  <g id="bk" transform="translate(2.666 5.687)">
    <path id="Stroke_3" data-name="Stroke 3" d="M0,.5H9.948" transform="translate(8.254 18.628)" fill="none" stroke="#111" stroke-linecap="round" stroke-linejoin="round" stroke-miterlimit="10" stroke-width="1"/>
    <g id="Group_22" data-name="Group 22">
      <path id="Stroke_4" data-name="Stroke 4" d="M0,2.381A2.381,2.381,0,1,0,2.381,0,2.382,2.382,0,0,0,0,2.381Z" transform="translate(3.016 16.429)" fill="none" stroke="#111" stroke-linecap="round" stroke-linejoin="round" stroke-miterlimit="10" stroke-width="1"/>
      <path id="Stroke_6" data-name="Stroke 6" d="M0,2.381A2.381,2.381,0,1,0,2.381,0,2.382,2.382,0,0,0,0,2.381Z" transform="translate(18.571 16.429)" fill="none" stroke="#111" stroke-linecap="round" stroke-linejoin="round" stroke-miterlimit="10" stroke-width="1"/>
      <path id="Stroke_8" data-name="Stroke 8" d="M0,.5H1.905" transform="translate(0 13.548)" fill="none" stroke="#111" stroke-linecap="round" stroke-linejoin="round" stroke-miterlimit="10" stroke-width="1"/>
      <path id="Stroke_10" data-name="Stroke 10" d="M2.54,13.333H.635A.634.634,0,0,1,0,12.7V7.471a1.269,1.269,0,0,1,1.112-1.26l3.968-.5L9.4.852A2.543,2.543,0,0,1,11.3,0H22.947a2.808,2.808,0,0,1,2.7,2.056l1.016,3.659v6.349A1.269,1.269,0,0,1,25.4,13.333H24.127" transform="translate(0 5.795)" fill="none" stroke="#111" stroke-linecap="round" stroke-linejoin="round" stroke-miterlimit="10" stroke-width="1"/>
      <path id="Stroke_12" data-name="Stroke 12" d="M21.587.5H0" transform="translate(5.08 11.009)" fill="none" stroke="#111" stroke-linecap="round" stroke-linejoin="round" stroke-miterlimit="10" stroke-width="1"/>
      <path id="Stroke_14" data-name="Stroke 14" d="M.5,5.715V0" transform="translate(13.467 5.793)" fill="none" stroke="#111" stroke-linecap="round" stroke-linejoin="round" stroke-miterlimit="10" stroke-width="1"/>
      <path id="Stroke_16" data-name="Stroke 16" d="M5.241,3.641V.751A.755.755,0,0,0,4.492,0H.751A.752.752,0,0,0,0,.751V3.595" transform="translate(16.847)" fill="none" stroke="#111" stroke-linecap="round" stroke-linejoin="round" stroke-miterlimit="10" stroke-width="1"/>
      <path id="Stroke_18" data-name="Stroke 18" d="M4.153,0H.751A.752.752,0,0,0,0,.751V2.523" transform="translate(12.694 1.188)" fill="none" stroke="#111" stroke-linecap="round" stroke-linejoin="round" stroke-miterlimit="10" stroke-width="1"/>
      <path id="Stroke_20" data-name="Stroke 20" d="M0,.5H12.017" transform="translate(11.19 3.265)" fill="none" stroke="#111" stroke-linecap="round" stroke-linejoin="round" stroke-miterlimit="10" stroke-width="1"/>
    </g>
  </g>
</svg>
