<svg width="33" height="32" viewBox="0 0 33 32" xmlns="http://www.w3.org/2000/svg">
    <g fill="none" fill-rule="evenodd">
        <path fill="none" d="M.5 32h32V0H.5z"/>
        <path stroke="#212322" stroke-linecap="round" stroke-linejoin="round" d="M11.421 21.635h9.948"/>
        <g stroke="#212322" stroke-linecap="round" stroke-linejoin="round">
            <path d="M6.182 21.317a2.382 2.382 0 1 0 4.764 0 2.382 2.382 0 0 0-4.764 0zM21.738 21.317a2.382 2.382 0 1 0 4.764 0 2.382 2.382 0 0 0-4.764 0zM3.166 16.556h1.906"/>
            <path d="M5.706 21.635H3.801A.634.634 0 0 1 3.166 21v-5.228c0-.641.478-1.181 1.112-1.26l3.968-.496 4.322-4.862a2.543 2.543 0 0 1 1.898-.852h11.647c1.26 0 2.367.84 2.704 2.056l1.016 3.658v6.35c0 .7-.568 1.269-1.27 1.269h-1.27M29.833 14.016H8.246M17.133 14.016V8.3"/>
        </g>
    </g>
</svg>
