<svg width="33" height="32" viewBox="0 0 33 32" xmlns="http://www.w3.org/2000/svg">
    <g fill="none" fill-rule="evenodd">
        <path fill="none" d="M.5 32h32V0H.5z"/>
        <path stroke="#212322" stroke-linecap="round" d="M20.677 20.183h-8.405"/>
        <g stroke="#212322" stroke-linecap="round">
            <path d="M8.426 20.183H6.772c-.756 0-1.588-.599-1.605-1.503-.015-.73.767-1.996 1.521-2.983A3.185 3.185 0 0 1 9.05 14.45l.845-.046c1.74-2.346 2.267-4.415 6.579-4.415.792 0 3.565.081 4.484.21 5.42.765 5.553 5.617 6.053 7.507.525.212.863.734.819 1.318-.044.558-.488 1.16-1.364 1.16H24.63"/>
            <path d="M8.523 20.138a1.875 1.875 0 1 0 3.75 0 1.875 1.875 0 0 0-3.75 0zM20.677 20.138a1.875 1.875 0 1 0 3.75 0 1.875 1.875 0 0 0-3.75 0zM9.997 14.393h8.321l1.293-3.954" stroke-linejoin="round"/>
        </g>
    </g>
</svg>
