<svg width="32" height="32" viewBox="0 0 32 32" xmlns="http://www.w3.org/2000/svg">
    <g fill="none" fill-rule="evenodd">
        <path fill="none" d="M0 32h32V0H0z"/>
        <g stroke="#212322" stroke-linejoin="round">
            <path d="M4.198 22.575a2.576 2.576 0 1 0 5.152-.002 2.576 2.576 0 0 0-5.152.002zM23.192 22.575a2.576 2.576 0 1 0 5.153-.002 2.576 2.576 0 0 0-5.153.002z"/>
            <path d="M28.343 22.575h1.017c.86 0 1.558-.699 1.558-1.559V9.968a3.118 3.118 0 0 0-3.116-3.118H4.842c-1.29 0-2.381.956-2.552 2.235l-.99 7.423v5.287c0 .431.35.78.78.78h2.44M9.027 22.575h14.164M20.874 9.426v5.151M13.946 9.426v5.151"/>
            <path d="M6.313 14.577h19.82c.43 0 .778-.348.778-.78v-3.592a.778.778 0 0 0-.779-.779H1.944"/>
            <path d="M6.451 9.426v5.15l-3.22 1.933h-1.93"/>
        </g>
    </g>
</svg>
