<svg width="32" height="32" viewBox="0 0 32 32" xmlns="http://www.w3.org/2000/svg">
    <g fill="none" fill-rule="evenodd">
        <path fill="none" d="M0 32h32V0H0z"/>
        <path stroke="#212322" stroke-linecap="round" stroke-linejoin="round" d="M12.923 21.117h6.304"/>
        <g stroke="#212322" stroke-linecap="round" stroke-linejoin="round">
            <path d="M8.986 20.38a1.841 1.841 0 0 0 2.237 2.237 1.823 1.823 0 0 0 1.324-1.324 1.841 1.841 0 0 0-2.237-2.237 1.823 1.823 0 0 0-1.324 1.324zM19.511 20.38a1.841 1.841 0 0 0 2.238 2.237 1.823 1.823 0 0 0 1.324-1.324 1.841 1.841 0 0 0-2.238-2.237 1.823 1.823 0 0 0-1.324 1.324zM6.742 16.63h.996"/>
            <path d="M8.559 21.117H7.11A1.11 1.11 0 0 1 6 20.007v-2.982c0-1.187.883-2.187 2.06-2.335l2.426-.302 1.842-4.295c.344-.768 1.036-.752 1.676-.752l9.06-.013a2.5 2.5 0 0 1 2.474 2.113l.334 2.943.127 5.622a1.11 1.11 0 0 1-1.11 1.11h-1.133M25.555 14.388H10.486M18.337 14.383V9.34"/>
        </g>
    </g>
</svg>
