<svg width="32" height="32" viewBox="0 0 32 32" xmlns="http://www.w3.org/2000/svg">
    <g fill="none" fill-rule="evenodd">
        <path fill="none" d="M0 32h32V0H0z"/>
        <path d="M2.5 14.59h4.62c.629 0 1.143-.515 1.143-1.144V10.21" stroke="#212322" stroke-linecap="round" stroke-linejoin="round"/>
        <path d="M10.77 9.857 5.672 9.84a2.173 2.173 0 0 0-2.017 1.346l-1.13 2.744c-.449 1.091-.815 2.95-.815 4.13v4.07c0 .734.6 1.334 1.333 1.334h1.19M10.177 23.427h10.647M26.954 23.351h1.544v-5.005M10.855 7.021c0-.368.298-.667.666-.667l1.876-.002c.4-.003.782.177 1.037.486l.508.618c.253.308.632.486 1.032.486h12.103c1.374 0 2.24.69 2.213 2.588l-.58 6.122c0 1.088-.99 1.69-1.976 1.69l-16.199.004a.68.68 0 0 1-.68-.668V7.021z" stroke="#212322" stroke-linecap="round" stroke-linejoin="round"/>
        <path stroke="#212322" stroke-linecap="round" stroke-linejoin="round" d="m17.006 15.895 1.306-5.721h-1.92M23.838 15.895l1.305-5.721h-1.918M24.032 20.72a2.464 2.464 0 1 0 0 4.928 2.464 2.464 0 0 0 0-4.928zM7.184 20.72a2.464 2.464 0 1 0 0 4.928 2.464 2.464 0 0 0 0-4.928z"/>
    </g>
</svg>
