<svg width="32" height="32" viewBox="0 0 32 32" xmlns="http://www.w3.org/2000/svg">
    <g fill="none" fill-rule="evenodd">
        <path fill="none" d="M0 32h32V0H0z"/>
        <path d="M4.545 20.278H3.171c-.207 0-.42-.047-.6-.13C2 19.883 2 19.22 2 18.862v-1.724c0-1.942 1.886-2.864 3.102-3.159.265-.065.421-.092.673-.143l3.237-.388c.235-.049 1.036-.605 1.684-1.054 1.591-1.104 3.77-2.615 5.303-2.615 9.239 0 10.41.901 10.796 1.199 1.21.932 2.248 3.177 2.35 3.401.115.21.854 1.579.854 2.493v2.075c0 .883-.193 1.33-1.252 1.33h-2.275" stroke="#212322" stroke-linecap="round" stroke-linejoin="round"/>
        <path d="M4.922 20.119a2.103 2.103 0 1 0 4.206 0 2.103 2.103 0 0 0-4.206 0zM22.268 20.119a2.103 2.103 0 1 0 4.206 0 2.103 2.103 0 0 0-4.206 0zM22.047 20.278H9.377M28.05 13.47H9.119" stroke="#212322" stroke-linecap="round" stroke-linejoin="round"/>
        <path stroke="#212322" stroke-linejoin="round" d="m16.599 10.047 1.196 3.793M23.976 10.047 22.78 13.84"/>
        <path stroke="#212322" stroke-linecap="round" stroke-linejoin="round" d="M27.716 15.761h1.518"/>
    </g>
</svg>
